# xmcd
#
# Track frame offsets: 
#        150
#        13080
#        25205
#        38097
#        53315
#        67420
#        81240
#        94145
#        107450
#        121265
#        136430
#        151182
#        163485
#        177005
#        189557
#        203077
#        214577
#        229440
#        242792
#        253655
#
# Disc length: 3691 seconds
#
# Revision: 3
# Processed by: cddbd v1.5.2PL0 Copyright (c) Steve Scherf et al.
# Submitted via: ExactAudioCopy v1.0b3
#
DISCID=130e6914
DTITLE=Muddy Waters - The Best Of Muddy Waters
DYEAR=2001
DGENRE=Blues
TTITLE0=I Just Want To Make Love To You
TTITLE1=Long Distance Call
TTITLE2=Louisiana Blues
TTITLE3=Honey Bee
TTITLE4=Rollin' Stone
TTITLE5=I'm Ready
TTITLE6=Hoochie Coochie Man
TTITLE7=Show Moves Me
TTITLE8=I Want You To Love Me
TTITLE9=Standing Around Crying
TTITLE10=Still A Fool
TTITLE11=I Can't Be Satisfied
TTITLE12=Rollin' Stone (Alternative Take)
TTITLE13=Hoochie Coochie Man (Alternative Take)
TTITLE14=Rollin' And Tumblin' (Part 1)
TTITLE15=Rollin' And Tumblin' (Part 2)
TTITLE16=Baby Please Don't Go
TTITLE17=Mannish Boy
TTITLE18=Look What You've Done
TTITLE19=Got My Mojo Workin' (Part 2)
EXTD=YEAR: 2001
EXTT0=
EXTT1=
EXTT2=
EXTT3=
EXTT4=
EXTT5=
EXTT6=
EXTT7=
EXTT8=
EXTT9=
EXTT10=
EXTT11=
EXTT12=
EXTT13=
EXTT14=
EXTT15=
EXTT16=
EXTT17=
EXTT18=
EXTT19=
PLAYORDER=
